<!DOCTYPE svg PUBLIC "-//W3C//DTD SVG 1.1//EN" "http://www.w3.org/Graphics/SVG/1.1/DTD/svg11.dtd">
<!-- Uploaded to: SVG Repo, www.svgrepo.com, Transformed by: SVG Repo Mixer Tools -->
<svg fill="#000000" width="800px" height="800px" viewBox="-595.2 -595.2 3110.40 3110.40" xmlns="http://www.w3.org/2000/svg" stroke="#000000" stroke-width="0.019200000000000002">
<g id="SVGRepo_bgCarrier" stroke-width="0" transform="translate(0,0), scale(1)">
<path transform="translate(-595.2, -595.2), scale(194.4)" fill="#ffffff" d="M9.166.33a2.25 2.25 0 00-2.332 0l-5.25 3.182A2.25 2.25 0 00.5 5.436v5.128a2.25 2.25 0 001.084 1.924l5.25 3.182a2.25 2.25 0 002.332 0l5.25-3.182a2.25 2.25 0 001.084-1.924V5.436a2.25 2.25 0 00-1.084-1.924L9.166.33z" strokewidth="0"/>
</g>
<g id="SVGRepo_tracerCarrier" stroke-linecap="round" stroke-linejoin="round" stroke="#CCCCCC" stroke-width="3.84"/>
<g id="SVGRepo_iconCarrier"> <path d="M0 1920h1242.353V677.647H0V1920ZM1129.412 790.588v1016.47H112.942V790.589h1016.47Zm451.764-451.764v1242.352h-225.882v-112.94h112.941V451.764H451.765v112.94H338.824V338.825h1242.352ZM1920.034-.011v1242.353h-225.882V1129.4h112.94V112.93H790.623v112.94H677.681V-.01h1242.353ZM338.824 1355.294h564.705v-112.941H338.824v112.941Z" fill-rule="evenodd"/> </g>
</svg>