<!DOCTYPE svg PUBLIC "-//W3C//DTD SVG 1.1//EN" "http://www.w3.org/Graphics/SVG/1.1/DTD/svg11.dtd">
<!-- Uploaded to: SVG Repo, www.svgrepo.com, Transformed by: SVG Repo Mixer Tools -->
<svg fill="#62a0ea" height="800px" width="800px" version="1.2" baseProfile="tiny" id="Layer_1" xmlns="http://www.w3.org/2000/svg" xmlns:xlink="http://www.w3.org/1999/xlink" viewBox="-63 65 128 128" xml:space="preserve">
<g id="SVGRepo_bgCarrier" stroke-width="0"/>
<g id="SVGRepo_tracerCarrier" stroke-linecap="round" stroke-linejoin="round"/>
<g id="SVGRepo_iconCarrier"> <path d="M-6.9,81.5l8.2-3.8l-3.8-8.2l-8.2,3.8L-6.9,81.5z M-10.5,88.5l-13.6-4.6l-4.6,13.6l13.6,4.6L-10.5,88.5z M-10.4,94.2 l24.8-2.3l2.1,23.6l-17.9,2.1l-7.3-9.6L-10.4,94.2z M20.2,133.8l8.6,5.2l5-0.9l6-9.8v-0.2l-8.7-5.3l-5,0.9l-5.9,9.8V133.8z M23.9,146l16,2.1l-2.1,16.4l-11.3-1.6l-4.3-8.2L23.9,146z M7.8,147.4L-35.5,95l-9.4-23.1l-9.2-2.8v114.1c0,3.2,2.6,5.7,5.7,5.7 l78-0.1L23.2,166L7.8,147.4 M1.4,129.2l3.8-2.9l-5.3-7.1l-3.7,2.8v7.2H1.4z M58.6,189.1H44.5V179l5.7-5.8l8.4,6.4V189.1z"/> </g>
</svg>